<svg id="schleswig-holstein" width="213" height="90" viewBox="0 0 213 90" xmlns="http://www.w3.org/2000/svg"><g fill="none" fill-rule="evenodd"><path d="M89.395 63.262a2.638 2.638 0 00-1.84-.886c-.818 0-1.772.408-1.772 1.362 0 .954.818 1.227 1.909 1.567 1.294.408 2.93.954 2.93 2.93 0 2.18-1.704 3.203-3.68 3.203a4.625 4.625 0 01-3.473-1.431l1.295-1.226a2.845 2.845 0 002.18 1.09c.818 0 1.84-.408 1.84-1.5 0-1.091-1.09-1.362-2.317-1.772-1.227-.41-2.589-.954-2.589-2.862 0-2.044 1.84-3 3.679-3a4.234 4.234 0 012.93 1.092l-1.092 1.433zm7.768 2.998a1.811 1.811 0 00-1.43-.682 2.052 2.052 0 00-1.909 2.18 1.983 1.983 0 001.976 2.181 1.856 1.856 0 001.43-.614l1.09 1.09a3.39 3.39 0 01-2.52.954 3.542 3.542 0 01-3.748-3.61 3.486 3.486 0 013.679-3.611c.98-.03 1.925.368 2.589 1.09l-1.157 1.022zm8.857.682v4.292h-1.703v-3.745c0-.818-.204-1.84-1.294-1.84a1.702 1.702 0 00-1.636 1.84v3.748h-1.703V60.469h1.704v4.906a2.307 2.307 0 012.044-1.153 2.495 2.495 0 012.59 2.72zm2.18-6.473h1.704v10.834H108.2zm10.494 7.903h-5.247c.12.993.976 1.731 1.976 1.704.725.04 1.42-.294 1.84-.886l1.154.886a3.728 3.728 0 01-6.61-2.248 3.527 3.527 0 013.612-3.679c1.908 0 3.338 1.226 3.338 3.748a1.01 1.01 0 00-.063.475zm-1.703-1.225a1.5 1.5 0 00-1.636-1.636 1.816 1.816 0 00-1.908 1.636h3.544zm7.29-.955a1.9 1.9 0 00-1.5-.75c-.546 0-1.09.204-1.09.75s.545.682 1.5.886c1.021.272 2.18.682 2.18 2.044 0 1.704-1.363 2.317-2.862 2.317a3.643 3.643 0 01-2.794-1.154l1.153-1.09c.422.553 1.076.88 1.772.886.477 0 1.09-.204 1.09-.818 0-.546-.545-.75-1.566-.954-1.022-.272-2.045-.682-2.045-1.976 0-1.5 1.363-2.18 2.726-2.18a3.438 3.438 0 012.59 1.022l-1.154 1.017zm2.044-1.839h1.84l1.43 4.907 1.5-4.907h1.84l1.5 4.907 1.43-4.907h1.765l-2.384 6.881h-1.704l-1.565-4.769-1.566 4.77h-1.772zm13.559-3.338a1.024 1.024 0 110 2.044 1.064 1.064 0 01-1.09-1.022 1.02 1.02 0 011.09-1.022zm-.886 3.338h1.704v6.883h-1.704v-6.883zm10.902-.001v6.269c0 2.452-1.226 4.02-3.884 4.02a5.712 5.712 0 01-3.407-1.154l.954-1.294a3.66 3.66 0 002.385.954c1.635 0 2.18-1.022 2.18-2.384v-.477a2.636 2.636 0 01-2.248 1.022 3.404 3.404 0 01-3.407-3.55 3.37 3.37 0 013.339-3.61 2.794 2.794 0 012.384 1.226v-1.022h1.704zm-5.653 3.407a2.066 2.066 0 001.976 2.18 2.04 2.04 0 002.045-2.18 2.076 2.076 0 00-2.045-2.18 1.99 1.99 0 00-1.978 2.18h.002zm11.036.681h-3.407v-1.43h3.407zm2.112-7.289h1.772v4.088h4.7v-4.088h1.773v10.083h-1.773v-4.499h-4.7v4.5h-1.772zm13.969 3.066a3.647 3.647 0 11-3.748 3.61 3.576 3.576 0 013.748-3.61zm0 5.791a2.04 2.04 0 001.976-2.248 1.983 1.983 0 00-1.976-2.18 2.018 2.018 0 00-1.976 2.18 2.04 2.04 0 001.976 2.248zm5.586-9.539h1.704v10.834h-1.704zm7.767 5.723a1.9 1.9 0 00-1.5-.75c-.545 0-1.09.204-1.09.75s.546.682 1.5.886c1.022.272 2.18.682 2.18 2.044 0 1.704-1.362 2.317-2.862 2.317a3.643 3.643 0 01-2.794-1.154l1.154-1.09c.422.553 1.076.88 1.772.886.476 0 1.09-.204 1.09-.818 0-.546-.546-.75-1.567-.954-1.022-.272-2.044-.682-2.044-1.976 0-1.5 1.362-2.18 2.726-2.18a3.439 3.439 0 012.589 1.022l-1.154 1.017zm2.113-.408v-1.363h1.227v-1.976h1.704v1.976h1.703v1.363h-1.703v3.202c0 .614.136 1.09.886 1.09.254-.012.507-.058.75-.136l.067 1.363a2.95 2.95 0 01-1.153.204c-1.84 0-2.249-1.09-2.249-2.453v-3.202h-1.232v-.068zm12.469 2.588h-5.247c.12.993.976 1.731 1.976 1.704.725.04 1.42-.294 1.84-.886l1.154.886a3.728 3.728 0 01-6.61-2.248 3.527 3.527 0 013.612-3.679c1.908 0 3.338 1.226 3.338 3.748a1.33 1.33 0 01-.063.475zm-1.703-1.225a1.5 1.5 0 00-1.636-1.636 1.816 1.816 0 00-1.908 1.636h3.544zm4.429-6.132a1.024 1.024 0 110 2.044 1.024 1.024 0 110-2.044zm-.886 3.338h1.704v6.883h-1.704v-6.883zm3.952-.001h1.636v1.09a2.273 2.273 0 012.112-1.294 2.501 2.501 0 012.52 2.794v4.292h-1.703v-3.815c0-.818-.204-1.84-1.295-1.84a1.65 1.65 0 00-1.566 1.84v3.748h-1.704v-6.815zM84.421 78.253h3.339a5.05 5.05 0 110 10.084h-3.339V78.253zm1.09 9.199h2.044a4.17 4.17 0 100-8.313h-2.044v8.313zm15.944-2.18h-5.518a2.442 2.442 0 002.453 2.452 2.381 2.381 0 002.112-1.153l.75.545a3.48 3.48 0 01-2.862 1.43 3.546 3.546 0 01-.136-7.086 3.073 3.073 0 013.202 3.339v.473zm-1.022-.75a2.13 2.13 0 00-2.248-2.18 2.319 2.319 0 00-2.317 2.18h4.565zm3.134-2.863h.955c0 .347.068.887.068 1.154a2.387 2.387 0 012.112-1.294 1.7 1.7 0 01.614.068l-.137.886a1.899 1.899 0 00-.681-.068c-1.022 0-1.976.75-1.976 2.52v3.407h-.955v-5.246a4.977 4.977 0 000-1.426zm14.854 3.613h-5.518a2.442 2.442 0 002.452 2.452 2.381 2.381 0 002.112-1.153l.75.545a3.48 3.48 0 01-2.862 1.43 3.545 3.545 0 01-.068-7.086 3.073 3.073 0 013.202 3.339 1.154 1.154 0 00-.068.473zm-.954-.75a2.112 2.112 0 00-2.18-2.18 2.319 2.319 0 00-2.316 2.18h4.496zm8.04-1.295a1.95 1.95 0 00-1.704-.886 2.538 2.538 0 00-2.589 2.726 2.469 2.469 0 002.52 2.654 2.2 2.2 0 001.84-.886l.75.545a3.081 3.081 0 01-2.52 1.154 3.362 3.362 0 01-3.543-3.543 3.399 3.399 0 013.543-3.542 3.134 3.134 0 012.453 1.153l-.75.625zm3.544-.409a2.523 2.523 0 012.248-1.294 2.39 2.39 0 012.52 2.726v4.088h-.952v-3.679c0-1.43-.409-2.316-1.84-2.316-1.022 0-2.044.817-2.044 2.588v3.407h-.953V77.571h.954l.068 5.247zm10.421-.34h-1.84v3.884c0 1.022.409 1.226 1.023 1.226a1.61 1.61 0 00.817-.204l.068.818a2.931 2.931 0 01-1.153.204 1.615 1.615 0 01-1.704-1.772v-4.153h-1.364v-.818h1.363v-1.911h.954v1.908h1.908v.818h-.072zm7.702 2.794h-5.519a2.442 2.442 0 002.453 2.452 2.381 2.381 0 002.112-1.153l.75.545a3.48 3.48 0 01-2.862 1.43 3.546 3.546 0 01-.136-7.086 3.073 3.073 0 013.202 3.339v.473zm-1.022-.75a2.112 2.112 0 00-2.18-2.18 2.319 2.319 0 00-2.317 2.18h4.497zm13.899 2.384v-8.585h1.022v10.084h-1.296l-5.86-8.721v8.72h-1.02V78.322h1.294zm6.951 1.636a3.543 3.543 0 010-7.087 3.399 3.399 0 013.543 3.543 3.437 3.437 0 01-3.543 3.544zm0-6.2a2.525 2.525 0 00-2.52 2.725 2.524 2.524 0 105.042 0 2.528 2.528 0 00-2.522-2.726zm5.655-.683h.954c0 .347.068.887.068 1.154a2.387 2.387 0 012.113-1.294c.207-.015.415.008.613.068l-.136.886a1.899 1.899 0 00-.682-.068c-1.022 0-1.976.75-1.976 2.52v3.407h-.954v-5.246a4.976 4.976 0 000-1.426zm8.245 6.882a3.544 3.544 0 010-7.087 3 3 0 012.52 1.363v-5.246h.955v10.766h-.95v-1.154a3.082 3.082 0 01-2.525 1.358zm.068-.818a2.562 2.562 0 002.589-2.653 2.62 2.62 0 00-2.589-2.726 2.697 2.697 0 000 5.382v-.003zm12.197-2.451h-5.519a2.442 2.442 0 002.453 2.452 2.381 2.381 0 002.112-1.153l.75.545a3.48 3.48 0 01-2.862 1.43 3.546 3.546 0 01-.136-7.086 3.073 3.073 0 013.202 3.339.577.577 0 010 .473zm-.954-.75a2.112 2.112 0 00-2.18-2.18 2.319 2.319 0 00-2.317 2.18h4.497zm4.02-2.863c0 .347.069.887.069 1.154a2.636 2.636 0 012.316-1.294 2.39 2.39 0 012.52 2.726v4.088h-.953v-3.679c0-1.43-.409-2.316-1.84-2.316-1.023 0-2.045.818-2.045 2.589v3.406h-.954v-5.246a11.928 11.928 0 00-.068-1.5h.954l.001.073zM0 41.461a18.269 18.269 0 0013.491 5.928c6.337.135 13.423-3.68 13.423-11.17 0-7.836-6.2-10.152-12.196-12.47-3.884-1.5-10.425-3.543-10.425-10.152 0-4.974 4.428-8.313 10.083-8.245 3.274.065 6.542 1.632 9.677 4.288l1.704-1.976a17.946 17.946 0 00-11.452-4.9C7.152 2.554 1.43 6.71 1.43 13.524c0 8.382 7.291 10.63 11.788 12.47 5.247 2.044 10.834 4.088 10.834 10.22 0 4.975-4.633 8.722-10.902 8.518A14.915 14.915 0 011.976 39.69L0 41.46zm61.254 4.836h2.794V3.712h-2.794v19.283h-22.28V3.711h-2.793v42.585h2.794V25.583h22.28z" fill="currentColor" fill-rule="nonzero"></path><path fill="#D4004B" fill-rule="nonzero" d="M175.589 3.644h-6.814l-3.61 6.677-1.432-6.677-2.52 6.677-2.59-6.677-1.431 6.677-3.612-6.677h-6.745l-.068 5.518 8.313 3.407-8.177 3.543 8.381 2.93-7.903 4.02 8.517 2.113-7.291 4.769 8.38.886-6.132 5.723h8.109l-4.225 5.79 6.473 5.043 6.405-5.042-4.224-5.791h8.108l-6.064-5.723 8.313-.886-7.223-4.77 8.45-2.112-7.836-4.02 8.38-2.93-8.176-3.543 8.245-3.407z"></path><g fill="currentColor"><path d="M115.627 42.141l-3.479-.885 2.589-.614-.136-.682 1.772-.068a3.487 3.487 0 00-2.654-1.43l-3.338 1.698c-.477-.204-4.225-3.816-4.225-3.816s3-2.93 1.363-4.975a21.349 21.349 0 00-4.5-2.52 28.584 28.584 0 00-3.678 2.794c1.226.954 2.384 2.384 2.18 3.748-.136.886-1.362 1.84-1.362 1.84-.204.546 7.498 4.769 7.498 4.769l-.818.75a1.723 1.723 0 00-.346 1.772l1.09-.818.273.346 1.294-1.022.546 2.452.75-.068.272 1.908c1.43-.476 1.5-2.588 1.5-2.588l-.955-2.385 3.203 2.453.408-.954 1.636.545c.276.067-.133-1.364-.883-2.25zm22.487-29.435l-2.453.346 1.976-2.316-.818-.818 1.09-1.567a3.145 3.145 0 00-2.794 1.227l-1.635 3.884V10.39h-.818l-.205-1.84a3.582 3.582 0 00-1.635 3.066l1.5 2.653-6.542 8.45a7.152 7.152 0 011.363 3.202l.068.204.546 2.453 6.472-10.152 1.84 1.154c1.023-.069 1.567-1.431 1.567-1.431L136 17.535l-.272-2.316 1.908.136.346-.614 2.044.273a2.259 2.259 0 00-1.911-2.309z" fill-rule="nonzero"></path><path d="M138.522 41.936l-3-1.226 2.045-.136c0-.068.272-.954.272-1.022l2.317-.204s-1.636-1.5-3-1.363l-3.406 1.295-8.653-6.745a17.113 17.113 0 003-.818 5.46 5.46 0 01-1.154-2.521l-.613-2.726a6.608 6.608 0 00-1.227-2.93 9.44 9.44 0 00-1.09-1.154l-1.226-.954 1.43-.204a2.289 2.289 0 001.976-1.84h-5.998v-1.09h5.998c.914.031 1.8-.314 2.453-.954a4.258 4.258 0 001.154-2.453.614.614 0 00-1.227 0 3.683 3.683 0 01-.886 1.636 2.109 2.109 0 01-1.566.546h-6c0-.204 0-.068.069-.204a1.586 1.586 0 011.636-.886c1.362 0 2.794 0 4.565-.069.818 0 1.226-1.362 1.226-1.362s.346-2.112.346-2.452c0-.34-.136-.347-.476-.477-.92-.24-1.81-.582-2.654-1.022a6.852 6.852 0 00-2.653-1.022h-3.679a3.848 3.848 0 00-1.5.682 2.769 2.769 0 00-1.43-1.704l-1.5-.546.614 3.61-.954 3.271c-.784.435-1.605.8-2.453 1.09h-1.09l.818.818a3.692 3.692 0 002.112.205l-.204.681c-.728.467-1.505.854-2.316 1.154l-1.09-.068.817.818c.273.272 1.154.272 2.045.204l-.409 1.5a1.585 1.585 0 01-1.704 1.362c-1.43 0-19.214-2.112-19.214-2.112-1.294-.136-4.088-.546-4.088-3 0-2.248 2.18-2.588 4.224-2.588h14.514c3.952 0 5.859-2.044 6.064-5.999.136-3.338 2.18-4.7 3.407-4.7h5.998c1.688-.819 2.846-3.952 2.846-3.952s-1.293.476-2.653.818h-6.88c-1.5 0-3.203 2.044-3.884 4.499-.75-2.385-2.249-4.5-3.885-4.5h-6.88C98.461.715 97.17.305 97.17.305s1.153 3.202 2.862 3.952h5.999c1.294 0 3.406 1.363 3.406 4.701 0 2.589-1.226 3.68-3.679 3.68H99.76c.216-.928.56-1.821 1.022-2.654l1.294-1.022h-1.771c-.954 0-2.726 2.726-3.406 3.679h-2.125a24.45 24.45 0 011.362-3.953l1.637-1.296h-2.248c-1.227 0-3.611 4.02-4.361 5.178-2.112 0-6.473.75-6.473 4.906 0 3.339 3.066 4.907 6.133 5.315.136 0 4.153.546 4.153.546l-3.339 7.498a6.907 6.907 0 00-1.772-.068c-.476.204-3.952 8.722-3.952 8.722l-2.316.068a3.733 3.733 0 00-1.363 1.362 2.314 2.314 0 00-.272 1.022l1.362-.476.614.545 1.43-.408-1.153 2.726.75.818-.273 2.248c1.227-.136 2.113-2.044 2.113-2.044l.136-2.794 1.022 2.589c.229.005.456.028.682.068l1.362 2.18c.263-.237.453-.544.546-.886.1-.654.146-1.315.136-1.976-.408-.546-1.84-2.18-1.84-2.18l2.384 1.703c0-.068.409-.408.477-.476l2.384.954s-.476-2.112-1.09-2.589l-3.952-1.5 8.925-8.857c2.18-1.84 4.153-3.474 5.179-3.61 1.026-.137 8.925 5.042 10.289 5.246.931.066 1.867.044 2.794-.068a5.324 5.324 0 00-.068 1.567c.478.884 13.902 6.057 13.902 6.057L128.37 41.8c-.613.346-.954 2.113-.954 2.113l2.112-1.154.477.682 1.772-1.43-.272 2.316.818.136.068 2.93c1.09-.476 1.772-2.726 1.772-2.726v-2.186l2.248 2.044.818-.75 1.976.954a3.83 3.83 0 00-.683-2.793zm-19.35-28.208a.421.421 0 01-.137-.476c.346-.546 1.227-1.84 1.908-1.976.136 0 .346-.068.477-.068a3.366 3.366 0 011.704.545l.613.273a.301.301 0 01.136.476c-.068.136-.346.272-.476.136l-.614-.346a.25.25 0 00-.204-.068.74.74 0 01.068.346 1.367 1.367 0 01-1.362 1.363 1.313 1.313 0 01-1.295-1.023l-.408.614c-.006.272-.206.34-.41.204z" fill-rule="nonzero"></path><circle cx=".682" cy=".682" r="1" transform="translate(120.738 11.956)"></circle></g></g></svg>
